/* XPM */
static char *bitcoin32_xpm[] = {
/* width height num_colors chars_per_pixel */
"    32    32      256            2",
/* colors */
"`` c #000000",
"`. c #555555",
"`# c #5f5f5f",
"`a c #999999",
"`b c #e6e6e6",
"`c c #f4f4f4",
"`d c #f9f9f9",
"`e c #fbfbfb",
"`f c #fdfdfd",
"`g c #fcfcfc",
"`h c #f8f8f8",
"`i c #7f7f7f",
"`j c #b8b8b8",
"`k c #f2f2f2",
"`l c #ffffff",
"`m c #e9e9e9",
"`n c #919191",
"`o c #f5f5f5",
"`p c #f0f0f0",
"`q c #bcbcbc",
"`r c #3f3f3f",
"`s c #b2b2b2",
"`t c #f1f1f1",
"`u c #f7f7f7",
"`v c #c1c1c1",
"`w c #bfbfbf",
"`x c #aaaaaa",
"`y c #6d6d6d",
"`z c #e5e5e5",
"`A c #00ffff",
"`B c #0079ee",
"`C c #007bf0",
"`D c #007feb",
"`E c #0079f2",
"`F c #007df2",
"`G c #007df0",
"`H c #007ff5",
"`I c #0075eb",
"`J c #007af2",
"`K c #007cee",
"`L c #007fe9",
"`M c #bbbbbb",
"`N c #0000ff",
"`O c #007bf1",
"`P c #0079ef",
"`Q c #0078f0",
"`R c #007bee",
"`S c #007ff6",
"`T c #007cf0",
"`U c #007fef",
"`V c #007aec",
"`W c #006dda",
"`X c #007af0",
"`Y c #f3f3f3",
"`Z c #007bef",
"`0 c #006dff",
"`1 c #00aaff",
"`2 c #0079f0",
"`3 c #007df1",
"`4 c #0076ec",
"`5 c #007cf3",
"`6 c #007fdf",
"`7 c #007ff0",
"`8 c #007cf1",
".` c #0078f1",
".. c #007be9",
".# c #007aed",
".a c #0077ee",
".b c #666666",
".c c #b1b1b1",
".d c #007bf6",
".e c #007aef",
".f c #007cf2",
".g c #007cef",
".h c #0071e2",
".i c #d0d0d0",
".j c #efefef",
".k c #8d8d8d",
".l c #c4c4c4",
".m c #c8c8c8",
".n c #d4e1ee",
".o c #0f4ba5",
".p c #a1ccf5",
".q c #b4b4b4",
".r c #036bda",
".s c #9ccbf8",
".t c #000055",
".u c #0172e6",
".v c #81bcf5",
".w c #fdffff",
".x c #b9b9b9",
".y c #00246d",
".z c #0074e7",
".A c #429df3",
".B c #dcecfc",
".C c #f8f8f9",
".D c #e1effb",
".E c #84bef6",
".F c #459ef3",
".G c #7ab9f6",
".H c #fdfefe",
".I c #00006d",
".J c #0071e5",
".K c #057ef0",
".L c #62adf4",
".M c #c8e2fa",
".N c #f0f6fc",
".O c #a8d2f8",
".P c #4ca2f4",
".Q c #037df0",
".R c #a2cef8",
".S c #0066d8",
".T c #0f83f0",
".U c #3b9af2",
".V c #57a8f4",
".W c #5facf5",
".X c #4ea3f3",
".Y c #2b91f2",
".Z c #027cf0",
".0 c #3996f0",
".1 c #003f9f",
".2 c #0070e3",
".3 c #0078ee",
".4 c #003ca5",
".5 c #001c71",
".6 c #0068d7",
".7 c #0072e5",
".8 c #0076ea",
"#` c #0078ed",
"#. c #007aee",
"## c #0079ed",
"#a c #0071e7",
"#b c #0066d6",
"#c c #00005f",
"#d c #000000",
"#e c #000000",
"#f c #000000",
"#g c #000000",
"#h c #000000",
"#i c #000000",
"#j c #000000",
"#k c #000000",
"#l c #000000",
"#m c #000000",
"#n c #000000",
"#o c #000000",
"#p c #000000",
"#q c #000000",
"#r c #000000",
"#s c #000000",
"#t c #000000",
"#u c #000000",
"#v c #000000",
"#w c #000000",
"#x c #000000",
"#y c #000000",
"#z c #000000",
"#A c #000000",
"#B c #000000",
"#C c #000000",
"#D c #000000",
"#E c #000000",
"#F c #000000",
"#G c #000000",
"#H c #000000",
"#I c #000000",
"#J c #000000",
"#K c #000000",
"#L c #000000",
"#M c #000000",
"#N c #000000",
"#O c #000000",
"#P c #000000",
"#Q c #000000",
"#R c #000000",
"#S c #000000",
"#T c #000000",
"#U c #000000",
"#V c #000000",
"#W c #000000",
"#X c #000000",
"#Y c #000000",
"#Z c #000000",
"#0 c #000000",
"#1 c #000000",
"#2 c #000000",
"#3 c #000000",
"#4 c #000000",
"#5 c #000000",
"#6 c #000000",
"#7 c #000000",
"#8 c #000000",
"a` c #000000",
"a. c #000000",
"a# c #000000",
"aa c #000000",
"ab c #000000",
"ac c #000000",
"ad c #000000",
"ae c #000000",
"af c #000000",
"ag c #000000",
"ah c #000000",
"ai c #000000",
"aj c #000000",
"ak c #000000",
"al c #000000",
"am c #000000",
"an c #000000",
"ao c #000000",
"ap c #000000",
"aq c #000000",
"ar c #000000",
"as c #000000",
"at c #000000",
"au c #000000",
"av c #000000",
"aw c #000000",
"ax c #000000",
"ay c #000000",
"az c #000000",
"aA c #000000",
"aB c #000000",
"aC c #000000",
"aD c #000000",
"aE c #000000",
"aF c #000000",
"aG c #000000",
"aH c #000000",
"aI c #000000",
"aJ c #000000",
"aK c #000000",
"aL c #000000",
"aM c #000000",
"aN c #000000",
"aO c #000000",
"aP c #000000",
"aQ c #000000",
"aR c #000000",
"aS c #000000",
"aT c #000000",
"aU c #000000",
"aV c #000000",
"aW c #000000",
"aX c #000000",
"aY c #000000",
"aZ c #000000",
"a0 c #000000",
"a1 c #000000",
"a2 c #000000",
"a3 c #000000",
"a4 c #000000",
"a5 c #000000",
"a6 c #000000",
"a7 c #000000",
"a8 c #000000",
/* pixels */
"```````````````````````````.`.`#`#`.`.``````````````````````````",
"`````````````````````a`b`c`d`e`f`g`e`h`c`b`i````````````````````",
"`````````````````j`k`e`l`l`l`l`l`l`l`l`l`l`g`k`j````````````````",
"`````````````.`m`g`l`l`l`l`l`l`l`l`l`l`l`l`l`l`g`b`.````````````",
"```````````n`c`l`l`l`l`l`l`l`l`l`l`l`l`l`l`l`l`l`l`c`n``````````",
"`````````n`o`l`l`l`l`l`l`f`d`c`k`k`c`d`f`l`l`l`l`l`l`o`n````````",
"```````.`c`l`l`l`l`l`g`p`q`r`````````.`s`t`g`l`l`l`l`l`c`.``````",
"```````m`l`l`l`l`l`u`v`````````````````````w`u`l`l`l`l`l`m``````",
"`````x`g`l`l`l`l`c`i`````````````````````````y`c`l`l`l`l`g`x````",
"`````k`l`l`l`l`u`i`````````````````````````````y`u`l`l`l`l`k````",
"```i`g`l`l`l`g`v`````````````````````````````````w`f`l`l`l`g`i``",
"```z`l`l`l`l`k`````````````````````````````````````t`l`l`l`l`b``",
"```c`l`l`l`f`w```A`B`C`D```E`F`A```G`H```I`J`K`L```M`f`l`l`l`c``",
"`.`d`l`l`l`d`r`N`O`O`C`C`P`Q`C`R`R`O`C`S`T`C`T`C`U`.`h`l`l`l`d`.",
"`.`e`l`l`l`c```P`C`V```T`O```C`C`C`C```T`C`A`W`O`X```Y`l`l`l`e`.",
"`#`f`l`l`l`k```T`Z`````E`C`0`1`C`C`I```C`2```3`3`4```k`l`l`l`f`#",
"`#`g`l`l`l`k```C`O`````5`T`6`7`C`C`C```C`R`N`8`C`C```k`l`l`l`f`#",
"`.`e`l`l`l`c```2`C`4```C`O```O`Z`C`C```T`C`A`A`C`C```o`l`l`l`e`.",
"`.`d`l`l`l`h`r`A`C`O`8`8`C`K`T.`..`C.#.a`X`C`O`C`C.b`e`l`l`l`d`.",
"```c`l`l`l`f.c```A`Z`T.d```Q.`````.e.f```L`P.g.h``.i`f`l`l`l`c``",
"```z`l`l`l`l.j`````````````````````````````````````Y`l`l`l`l`m``",
"``.k`e`l`l`l`g.l````````````````````````````````.m`g`l`l`l`e`i``",
"````.n`l`l`l`l`d`n````````````````````````````.k`d`l`l`l`l`k````",
"````.o.p`l`l`l`l`o`n`````````````````````````i`o`l`l`l`l`g.q````",
"``````.r.s`l`l`l`l`u.l````````````````````.m`u`l`l`l`l`l`m``````",
"``````.t.u.v.w`l`l`l`g.j.x`r`````````r`v`p`g`l`l`l`l`l`k`.``````",
"````````.y.z.A.B`l`l`l`l`f`d`c`k`k`c.C.D.E.F.G.H`l`l`o`y````````",
"``````````.I.J.K.L.M.w`l`l`l`l`l.N.O.P.Q`8`8`8.R`l`c`y``````````",
"````````````.t.S`B`8.T.U.V.W.X.Y.Z`8`8`8`8`8`8.0`z`.````````````",
"````````````````.1.2`B`8`8`8`8`8`8`8`8`8`8.3.2.4````````````````",
"````````````````````.5.6.7.8#`#..e##.8#a#b.5````````````````````",
"``````````````````````````.t.t#c#c.t.t``````````````````````````"
};
