/* XPM */
static char *bitcoin16_xpm[] = {
/* width height num_colors chars_per_pixel */
"    16    16      256            2",
/* colors */
"`` c #000000",
"`. c #dadada",
"`# c #f6f6f6",
"`a c #f8f8f8",
"`b c #f5f5f5",
"`c c #e5e5e5",
"`d c #e7e7e7",
"`e c #ffffff",
"`f c #fdfdfd",
"`g c #fafafa",
"`h c #dcdcdc",
"`i c #eeeeee",
"`j c #fcfcfc",
"`k c #fbfbfb",
"`l c #b6b6b6",
"`m c #aaaaaa",
"`n c #f3f3f3",
"`o c #ebebeb",
"`p c #ececec",
"`q c #d8d8d8",
"`r c #f4f4f4",
"`s c #007bf2",
"`t c #007bf0",
"`u c #007ff5",
"`v c #007bf1",
"`w c #007bee",
"`x c #0079f3",
"`y c #007bef",
"`z c #6699b2",
"`A c #007cee",
"`B c #007cf1",
"`C c #007cf2",
"`D c #007cef",
"`E c #007bed",
"`F c #007ff2",
"`G c #007aef",
"`H c #0079f2",
"`I c #91b6b6",
"`J c #007cf0",
"`K c #3f91da",
"`L c #cee2f6",
"`M c #0068d0",
"`N c #98c8f7",
"`O c #e6e6e6",
"`P c #006bdd",
"`Q c #51a3f2",
"`R c #cae3fb",
"`S c #dae9f8",
"`T c #82bef6",
"`U c #3295f3",
"`V c #86c0f6",
"`W c #0061ce",
"`X c #0076eb",
"`Y c #1384f0",
"`Z c #2e93f2",
"`0 c #1e8bf1",
"`1 c #017cf1",
"`2 c #1381ec",
"`3 c #0059cc",
"`4 c #0074e6",
"`5 c #0075eb",
"`6 c #0076e9",
"`7 c #000000",
"`8 c #000000",
".` c #000000",
".. c #000000",
".# c #000000",
".a c #000000",
".b c #000000",
".c c #000000",
".d c #000000",
".e c #000000",
".f c #000000",
".g c #000000",
".h c #000000",
".i c #000000",
".j c #000000",
".k c #000000",
".l c #000000",
".m c #000000",
".n c #000000",
".o c #000000",
".p c #000000",
".q c #000000",
".r c #000000",
".s c #000000",
".t c #000000",
".u c #000000",
".v c #000000",
".w c #000000",
".x c #000000",
".y c #000000",
".z c #000000",
".A c #000000",
".B c #000000",
".C c #000000",
".D c #000000",
".E c #000000",
".F c #000000",
".G c #000000",
".H c #000000",
".I c #000000",
".J c #000000",
".K c #000000",
".L c #000000",
".M c #000000",
".N c #000000",
".O c #000000",
".P c #000000",
".Q c #000000",
".R c #000000",
".S c #000000",
".T c #000000",
".U c #000000",
".V c #000000",
".W c #000000",
".X c #000000",
".Y c #000000",
".Z c #000000",
".0 c #000000",
".1 c #000000",
".2 c #000000",
".3 c #000000",
".4 c #000000",
".5 c #000000",
".6 c #000000",
".7 c #000000",
".8 c #000000",
"#` c #000000",
"#. c #000000",
"## c #000000",
"#a c #000000",
"#b c #000000",
"#c c #000000",
"#d c #000000",
"#e c #000000",
"#f c #000000",
"#g c #000000",
"#h c #000000",
"#i c #000000",
"#j c #000000",
"#k c #000000",
"#l c #000000",
"#m c #000000",
"#n c #000000",
"#o c #000000",
"#p c #000000",
"#q c #000000",
"#r c #000000",
"#s c #000000",
"#t c #000000",
"#u c #000000",
"#v c #000000",
"#w c #000000",
"#x c #000000",
"#y c #000000",
"#z c #000000",
"#A c #000000",
"#B c #000000",
"#C c #000000",
"#D c #000000",
"#E c #000000",
"#F c #000000",
"#G c #000000",
"#H c #000000",
"#I c #000000",
"#J c #000000",
"#K c #000000",
"#L c #000000",
"#M c #000000",
"#N c #000000",
"#O c #000000",
"#P c #000000",
"#Q c #000000",
"#R c #000000",
"#S c #000000",
"#T c #000000",
"#U c #000000",
"#V c #000000",
"#W c #000000",
"#X c #000000",
"#Y c #000000",
"#Z c #000000",
"#0 c #000000",
"#1 c #000000",
"#2 c #000000",
"#3 c #000000",
"#4 c #000000",
"#5 c #000000",
"#6 c #000000",
"#7 c #000000",
"#8 c #000000",
"a` c #000000",
"a. c #000000",
"a# c #000000",
"aa c #000000",
"ab c #000000",
"ac c #000000",
"ad c #000000",
"ae c #000000",
"af c #000000",
"ag c #000000",
"ah c #000000",
"ai c #000000",
"aj c #000000",
"ak c #000000",
"al c #000000",
"am c #000000",
"an c #000000",
"ao c #000000",
"ap c #000000",
"aq c #000000",
"ar c #000000",
"as c #000000",
"at c #000000",
"au c #000000",
"av c #000000",
"aw c #000000",
"ax c #000000",
"ay c #000000",
"az c #000000",
"aA c #000000",
"aB c #000000",
"aC c #000000",
"aD c #000000",
"aE c #000000",
"aF c #000000",
"aG c #000000",
"aH c #000000",
"aI c #000000",
"aJ c #000000",
"aK c #000000",
"aL c #000000",
"aM c #000000",
"aN c #000000",
"aO c #000000",
"aP c #000000",
"aQ c #000000",
"aR c #000000",
"aS c #000000",
"aT c #000000",
"aU c #000000",
"aV c #000000",
"aW c #000000",
"aX c #000000",
"aY c #000000",
"aZ c #000000",
"a0 c #000000",
"a1 c #000000",
"a2 c #000000",
"a3 c #000000",
"a4 c #000000",
"a5 c #000000",
"a6 c #000000",
"a7 c #000000",
"a8 c #000000",
/* pixels */
"```````````.`#`a`a`b`c``````````",
"```````d`a`e`e`e`e`e`f`g`h``````",
"`````i`j`e`e`f`k`k`f`e`e`f`i````",
"```h`j`e`f`#`l`````m`n`j`e`j`h``",
"```a`e`f`o`````````````p`f`e`a``",
"`q`f`e`r`````````````````r`e`f`c",
"`b`e`f`l`s`t`u`v`w`x`y`y`z`f`e`b",
"`a`e`k`A`B`C`B`t`D`B`y`E`F`k`e`a",
"`a`e`k`G`v`H`y`B`t`t`t`B`w`k`e`a",
"`b`e`j`I`J`t`B`w`C`t`B`t`K`f`e`b",
"`q`f`e`r`````````````````b`e`f`q",
"```L`e`f`d`````````````d`f`e`g``",
"```M`N`e`f`r`m`````l`r`j`e`j`O``",
"`````P`Q`R`e`j`k`S`T`U`V`j`d````",
"```````W`X`Y`Z`0`1`B`y`2`O``````",
"```````````3`4`5`6`4`3``````````"
};
