/* XPM */
static char *bitcoin64_xpm[] = {
/* width height num_colors chars_per_pixel */
"    64    64      256            2",
/* colors */
"`` c #000000",
"`. c #555555",
"`# c #666666",
"`a c #5f5f5f",
"`b c #5c5c5c",
"`c c #757575",
"`d c #777777",
"`e c #6f6f6f",
"`f c #626262",
"`g c #737373",
"`h c #787878",
"`i c #d1d1d1",
"`j c #eaeaea",
"`k c #f1f1f1",
"`l c #f6f6f6",
"`m c #f8f8f8",
"`n c #fafafa",
"`o c #fcfcfc",
"`p c #fbfbfb",
"`q c #f4f4f4",
"`r c #e7e7e7",
"`s c #cacaca",
"`t c #7f7f7f",
"`u c #3f3f3f",
"`v c #9e9e9e",
"`w c #e8e8e8",
"`x c #ffffff",
"`y c #e5e5e5",
"`z c #979797",
"`A c #d3d3d3",
"`B c #f2f2f2",
"`C c #fdfdfd",
"`D c #cccccc",
"`E c #cdcdcd",
"`F c #484848",
"`G c #a7a7a7",
"`H c #efefef",
"`I c #a3a3a3",
"`J c #d7d7d7",
"`K c #dadada",
"`L c #ebebeb",
"`M c #969696",
"`N c #8b8b8b",
"`O c #939393",
"`P c #696969",
"`Q c #797979",
"`R c #c4c4c4",
"`S c #e0e0e0",
"`T c #fefefe",
"`U c #ededed",
"`V c #bfbfbf",
"`W c #bababa",
"`X c #dbdbdb",
"`Y c #6a6a6a",
"`Z c #d9d9d9",
"`0 c #aaaaaa",
"`1 c #f3f3f3",
"`2 c #c7c7c7",
"`3 c #868686",
"`4 c #acacac",
"`5 c #dcdcdc",
"`6 c #e4e4e4",
"`7 c #c1c1c1",
"`8 c #b6b6b6",
".` c #717171",
".. c #d8d8d8",
".# c #333333",
".a c #c9c9c9",
".b c #0099ff",
".c c #0079ee",
".d c #007bee",
".e c #007bf0",
".f c #007bef",
".g c #007fdf",
".h c #0079ec",
".i c #007af0",
".j c #007aef",
".k c #0066cc",
".l c #00ffff",
".m c #0078eb",
".n c #007cef",
".o c #e6e6e6",
".p c #007aea",
".q c #007cf1",
".r c #0078f0",
".s c #0079f1",
".t c #eeeeee",
".u c #e9e9e9",
".v c #f0f0f0",
".w c #0055ff",
".x c #007cf0",
".y c #0073ff",
".z c #0079e6",
".A c #0000ff",
".B c #0073e7",
".C c #007aee",
".D c #007aed",
".E c #0079ed",
".F c #0078ee",
".G c #0079f0",
".H c #007ff2",
".I c #007aec",
".J c #b0b0b0",
".K c #f5f5f5",
".L c #007ff0",
".M c #0078f1",
".N c #6b6b6b",
".O c #007bf1",
".P c #007af1",
".Q c #0066ff",
".R c #007fec",
".S c #0074e9",
".T c #007ced",
".U c #007cee",
".V c #007f7f",
".W c #007fd4",
".X c #858585",
".Y c #0075eb",
".Z c #9f9f9f",
".0 c #0077ee",
".1 c #0071f0",
".2 c #007fff",
".3 c #0079e8",
".4 c #0079ef",
".5 c #0076ec",
".6 c #0076ed",
".7 c #0077ef",
".8 c #cbcbcb",
"#` c #0078ec",
"#. c #007fe9",
"## c #0071e2",
"#a c #007dee",
"#b c #d2d2d2",
"#c c #f7f7f7",
"#d c #e1e1e1",
"#e c #e2e2e2",
"#f c #8e8e8e",
"#g c #dddddd",
"#h c #6d6d6d",
"#i c #c3c3c3",
"#j c #55556a",
"#k c #a4c7eb",
"#l c #00003f",
"#m c #0f5ab9",
"#n c #92c5f5",
"#o c #c5c5c5",
"#p c #00005c",
"#q c #0370e1",
"#r c #acd2f8",
"#s c #8a8a8a",
"#t c #000055",
"#u c #002d91",
"#v c #057ced",
"#w c #b6d8f8",
"#x c #b3b3b3",
"#y c #b8b8b8",
"#z c #a0a0a0",
"#A c #000048",
"#B c #005acc",
"#C c #067def",
"#D c #b1d5f8",
"#E c #dfdfdf",
"#F c #006cde",
"#G c #027df0",
"#H c #9ac9f5",
"#I c #c2c2c2",
"#J c #00007f",
"#K c #00005f",
"#L c #0072e7",
"#M c #6ab0f3",
"#N c #f9fbfd",
"#O c #d5d5d5",
"#P c #001679",
"#Q c #0075e9",
"#R c #3093f0",
"#S c #d7e9fa",
"#T c #c6c6c6",
"#U c #cecece",
"#V c #dfedfa",
"#W c #9ac9f7",
"#X c #82bdf6",
"#Y c #aad1f7",
"#Z c #fcfdfd",
"#0 c #001e84",
"#1 c #057def",
"#2 c #7cb9f5",
"#3 c #f4f8fc",
"#4 c #f4f8fd",
"#5 c #99c9f6",
"#6 c #3295f1",
"#7 c #429cf2",
"#8 c #909090",
"a` c #001879",
"a. c #0070e6",
"a# c #1685f0",
"aa c #8dc3f6",
"ab c #f3f8fd",
"ac c #cde4f9",
"ad c #68b0f4",
"ae c #0b80f0",
"af c #83bcf4",
"ag c #8c8c8c",
"ah c #000066",
"ai c #0069db",
"aj c #63adf4",
"ak c #b9d9f8",
"al c #f8fafd",
"am c #fcfdff",
"an c #c9e2f9",
"ao c #7ab9f4",
"ap c #258ef0",
"aq c #0f82f0",
"ar c #f6f9fd",
"as c #ececec",
"at c #0055c7",
"au c #0077ed",
"av c #3998f2",
"aw c #68aff4",
"ax c #8cc2f6",
"ay c #a8d0f7",
"az c #bbdbf9",
"aA c #c2defa",
"aB c #bddbf9",
"aC c #91c4f6",
"aD c #70b4f5",
"aE c #409cf3",
"aF c #0a80ef",
"aG c #a8d1f7",
"aH c #006de2",
"aI c #428fe4",
"aJ c #89899c",
"aK c #00004c",
"aL c #004bb4",
"aM c #0049ba",
"aN c #0048b6",
"aO c #006fe4",
"aP c #006ee4",
"aQ c #001d7f",
"aR c #0064d4",
"aS c #0072e5",
"aT c #0063d4",
"aU c #000033",
"aV c #000063",
"aW c #004bbc",
"aX c #0064d7",
"aY c #006ee2",
"aZ c #0075ea",
"a0 c #0077ec",
"a1 c #0078ed",
"a2 c #0066da",
"a3 c #004bb8",
"a4 c #00004e",
"a5 c #00006d",
"a6 c #000000",
"a7 c #000000",
"a8 c #000000",
/* pixels */
"````````````````````````````````````````````````````````````````````````````````````````````````````````````````````````````````",
"```````````````````````````````````````````````````.`#`a`b`c`d`e`e`d`f`b`a`#`.``````````````````````````````````````````````````",
"`````````````````````````````````````````````.`g`h`i`j`k`l`m`n`o`p`n`m`q`k`r`s`h`g`#`t``````````````````````````````````````````",
"```````````````````````````````````````u`b`v`w`q`o`x`x`x`x`x`x`x`x`x`x`x`x`x`x`o`q`y`z`#`u``````````````````````````````````````",
"```````````````````````````````````u`f`A`B`C`x`x`x`x`x`x`x`x`x`x`x`x`x`x`x`x`x`x`x`x`C`B`D`f`u``````````````````````````````````",
"```````````````````````````````.`g`E`l`x`x`x`x`x`x`x`x`x`x`x`x`x`x`x`x`x`x`x`x`x`x`x`x`x`x`l`D`b`.``````````````````````````````",
"`````````````````````````````F`G`k`x`x`x`x`x`x`x`x`x`x`x`x`x`x`x`x`x`x`x`x`x`x`x`x`x`x`x`x`x`C`H`I`.````````````````````````````",
"`````````````````````````t`b`J`p`x`x`x`x`x`x`x`x`x`x`x`x`x`x`x`x`x`x`x`x`x`x`x`x`x`x`x`x`x`x`x`x`p`K`b`t````````````````````````",
"```````````````````````.`e`L`x`x`x`x`x`x`x`x`x`x`x`x`x`x`x`x`x`x`x`x`x`x`x`x`x`x`x`x`x`x`x`x`x`x`x`C`L`d`.``````````````````````",
"`````````````````````u`M`q`x`x`x`x`x`x`x`x`x`x`x`x`x`x`x`x`x`x`x`x`x`x`x`x`x`x`x`x`x`x`x`x`x`x`x`x`x`x`B`N`u````````````````````",
"```````````````````u`z`l`x`x`x`x`x`x`x`x`x`x`x`x`x`x`x`x`x`C`o`p`p`p`o`x`x`x`x`x`x`x`x`x`x`x`x`x`x`x`x`x`l`O`u``````````````````",
"`````````````````.`N`l`x`x`x`x`x`x`x`x`x`x`x`x`x`x`n`k`y`s`t`P`e`e`P`Q`R`S`H`n`T`x`x`x`x`x`x`x`x`x`x`x`x`x`l`M`.````````````````",
"`````````````````d`q`x`x`x`x`x`x`x`x`x`x`x`x`C`q`J`h`#`#`.`````````````.`#`.`e`D`B`C`x`x`x`x`x`x`x`x`x`x`x`x`q`d`t``````````````",
"```````````````b`U`x`x`x`x`x`x`x`x`x`x`x`x`q`V`g`u`````````````````````````````u`b`W`B`x`x`x`x`x`x`x`x`x`x`x`x`L`b``````````````",
"`````````````F`K`x`x`x`x`x`x`x`x`x`x`x`p`X`f`u`````````````````````````````````````.`Y`Z`n`x`x`x`x`x`x`x`x`x`x`x`K`.````````````",
"```````````.`I`p`x`x`x`x`x`x`x`x`x`x`l`0`F`````````````````````````````````````````````.`0`l`x`x`x`x`x`x`x`x`x`x`p`I`.``````````",
"```````````b`H`x`x`x`x`x`x`x`x`x`x`1`h`u`````````````````````````````````````````````````u`t`q`x`x`x`x`x`x`x`x`x`x`H`b``````````",
"`````````u`2`C`x`x`x`x`x`x`x`x`x`B`e`.`````````````````````````````````````````````````````.`h`q`x`x`x`x`x`x`x`x`x`C`2`u````````",
"`````````f`l`x`x`x`x`x`x`x`x`x`l`3`.`````````````````````````````````````````````````````````.`t`l`x`x`x`x`x`x`x`x`x`l`f````````",
"```````u`D`x`x`x`x`x`x`x`x`x`p`4`u`````````````````````````````````````````````````````````````u`4`n`x`x`x`x`x`x`x`x`x`D`u``````",
"```````#`1`x`x`x`x`x`x`x`x`C`5`F`````````````````````````````````````````````````````````````````F`J`x`x`x`x`x`x`x`x`x`B`#``````",
"```````O`C`x`x`x`x`x`x`x`x`q`c`````````````````````````````````````````````````````````````````````f`B`x`x`x`x`x`x`x`x`C`z``````",
"`````#`6`x`x`x`x`x`x`x`x`C`7`u`````````````````````````````````````````````````````````````````````.`8`C`x`x`x`x`x`x`x`x`y`#````",
"`````b`q`x`x`x`x`x`x`x`x`q`Y`````````````````````````````````````````````````````````````````````````b`k`x`x`x`x`x`x`x`x`q`b````",
"````.``p`x`x`x`x`x`x`x`x...#`````````````````````````````````````````````````````````````````````````u`s`x`x`x`x`x`x`x`x`p.`````",
"```..a`x`x`x`x`x`x`x`x`p.`````````.b.c.d.e.e.f.g``````.h.i.j.k``````.e.i.j.l``````.m.e.e.e.i.n`````````d`n`x`x`x`x`x`x`x`x`E`.``",
"```#.o`x`x`x`x`x`x`x`x`B`#``````.p.e.q.q.q.q.q.e.r````.h.q.q.s````.j.e.q.f````.l.e.e.q.q.q.q.f.e```````a.t`x`x`x`x`x`x`x`x.u`#``",
"```a.v`x`x`x`x`x`x`x`x`y`#````.w.f.q.x.i.i.e.e.q.j.y````.e.q.e.z.A.f.q.e.B````.C.q.q.f.e.f.f.q.x.f`````u`S`x`x`x`x`x`x`x`x`H`a``",
"```b`l`x`x`x`x`x`x`x`x`2`.````.e.q.q.i``````.D.x.q.E````.r.x.q.e.F.q.q.G````.H.e.q.j.k````.I.f.q.q`````t.J`x`x`x`x`x`x`x`x.K`b``",
"```f`m`x`x`x`x`x`x`x`C`t``````.e.q.f``````````.j.q.e``````.i.q.e.x.q.j.A````.D.q.e.L````````.M.q.M``````.N`o`x`x`x`x`x`x`x`m`f``",
"```#`n`x`x`x`x`x`x`x`o.```````.e.q.O``````````.P.q.e.Q````.R.e.q.q.e.i``````.e.q.i```````````````````````e`p`x`x`x`x`x`x`x`p`#``",
"```e`p`x`x`x`x`x`x`x`p`e``````.e.q.i``````````.i.q.q.S``````.i.q.q.j````````.f.q.q````.A.T.T.T.T.U```````a`n`x`x`x`x`x`x`x`p`#``",
"```a`p`x`x`x`x`x`x`x`p`e``````.e.q.i``````````.e.q.q.p``````.j.q.q.q.B``````.n.q.O````.V.q.q.q.q.e```````e`p`x`x`x`x`x`x`x`p`a``",
"```d`n`x`x`x`x`x`x`x`p.```````.e.q.P``````````.f.q.e.W````.D.q.q.q.q.j``````.i.q.f````.A.q.q.e.q.e``````.N`C`x`x`x`x`x`x`x`n`#``",
"```f`m`x`x`x`x`x`x`x`C.X``````.f.q.q``````````.e.q.e````.Q.f.q.O.e.q.e.f````.h.q.e.Y````````.c.q.e``````.Z`T`x`x`x`x`x`x`x`m`f``",
"```b`l`x`x`x`x`x`x`x`x`s`.````.U.q.q.h``````.P.e.q.i````.f.q.q.U.0.O.q.i````.1.q.q.e.W````.2.q.q.e`````u`J`x`x`x`x`x`x`x`x`l`b``",
"```a.v`x`x`x`x`x`x`x`x`6`#````.2.e.q.q.O.O.q.e.q.e.R``.3.q.q.f````.f.q.q.4````.c.q.q.e.i.f.q.q.q.e`````F`L`x`x`x`x`x`x`x`x`k`a``",
"```#`w`x`x`x`x`x`x`x`x`k.```````.5.e.q.q.q.q.q.O.h````.d.q.e.6````.2.x.q.e.2``.l.C.f.q.q.q.q.q.e.7`````Y.K`x`x`x`x`x`x`x`x.o`#``",
"```..8`x`x`x`x`x`x`x`x`p`P````````.W#`.f.q.n.C#.````##.e.O.e````````#a.O.O.r``````.U.e.f.x.n.G.l```````O`o`x`x`x`x`x`x`x`x`D`.``",
"````.``o`x`x`x`x`x`x`x`x#b`u`````````````````````````````````````````````````````````````````````````.`y`x`x`x`x`x`x`x`x`o.`````",
"`````b`1`x`x`x`x`x`x`x`x`q`g`````````````````````````````````````````````````````````````````````````##c`x`x`x`x`x`x`x`x`q`b````",
"`````##d`x`x`x`x`x`x`x`x`C`V`u`````````````````````````````````````````````````````````````````````#..`T`x`x`x`x`x`x`x`x#e`#````",
"`````t#f`o`x`x`x`x`x`x`x`x`q`c`````````````````````````````````````````````````````````````````````e`m`x`x`x`x`x`x`x`x`o`O``````",
"```````#.v`x`x`x`x`x`x`x`x`x#g#h`````````````````````````````````````````````````````````````````a.o`x`x`x`x`x`x`x`x`x`k`#``````",
"```````u`D`C`x`x`x`x`x`x`x`x`p.J`u`````````````````````````````````````````````````````````````##i`C`x`x`x`x`x`x`x`x`C`s`u``````",
"````````#j#k`x`x`x`x`x`x`x`x`x`m`N`.`````````````````````````````````````````````````````````u`O`m`x`x`x`x`x`x`x`x`x`l`Y````````",
"````````#l#m#n`x`x`x`x`x`x`x`x`x`1`h`.`````````````````````````````````````````````````````.`t.K`x`x`x`x`x`x`x`x`x`C#o`u````````",
"``````````#p#q#r`x`x`x`x`x`x`x`x`x`q`N`u`````````````````````````````````````````````````u#s`1`x`x`x`x`x`x`x`x`x`x`k`b``````````",
"``````````#t#u#v#w`x`x`x`x`x`x`x`x`x`m#x`F````````````````````````````````````````````#h#y`m`x`x`x`x`x`x`x`x`x`x`p#z`.``````````",
"````````````#A#B#C#D`x`x`x`x`x`x`x`x`x`p`5`c`u`````````````````````````````````````u#h#E`o`x`x`x`x`x`x`x`x`x`x`x..`.````````````",
"``````````````#p#F#G#H`x`x`x`x`x`x`x`x`x`C`q#I`g`u````````````````````````````.#`Y.8`l`T`x`x`x`x`x`x`x`x`x`x`x`j`b``````````````",
"``````````````#J#K#L.x#M#N`x`x`x`x`x`x`x`x`x`C`B#O`P.``#`.`````````````.`#`#.``K`q`C`x`x`x`x`x`x`x`x`x`x`x`x`q`d````````````````",
"````````````````#t#P#Q.q#R#S`x`x`x`x`x`x`x`x`x`x`x`n`k`6#T#s.``e`e.`#f#U.o`1`p`x`x#V#W#X#Y#Z`x`x`x`x`x`x`x.K.X`.````````````````",
"``````````````````#l#0.B.q#1#2#3`x`x`x`x`x`x`x`x`x`x`x`x`x`C`p`p`p`o`C`x`x`x#4#5#6.x.q.q.q#7#N`x`x`x`x`x.K#8`u``````````````````",
"````````````````````#la`a..q.qa#aaab`x`x`x`x`x`x`x`x`x`x`x`x`x`x`x`x`x`xacadae.q.q.q.q.q.q.qaf`x`x`x`x`Bag`u````````````````````",
"``````````````````````#tahai.e.q.qaeajakal`x`x`x`x`x`x`x`x`x`x`xamanaoap.q.q.q.q.q.q.q.q.q.qaqar`x`Cas`#`.``````````````````````",
"``````````````````````````ahatau.q.q.q.q#1avawaxayazaAaB#raCaDaEaF.q.q.q.q.q.q.q.q.q.q.q.q.q.qaG`n`J`b``````````````````````````",
"````````````````````````````#t#0aH.j.q.q.q.q.q.q.q.q.q.q.q.q.q.q.q.q.q.q.q.q.q.q.q.q.q.q.q.q.eaIaJ`.````````````````````````````",
"``````````````````````````````#JaKaL#L.f.q.q.q.q.q.q.q.q.q.q.q.q.q.q.q.q.q.q.q.q.q.q.q.q.f#LaM#p#J``````````````````````````````",
"``````````````````````````````````#l#taNaO.C.q.q.q.q.q.q.q.q.q.q.q.q.q.q.q.q.q.q.q.q.caPaM#t#l``````````````````````````````````",
"``````````````````````````````````````#laKaQaRaS.c.q.q.q.q.q.q.q.q.q.q.q.q.q.q.caSaT#0aK#l``````````````````````````````````````",
"````````````````````````````````````````````aU#paVaWaXaY.BaZa0#`a1a1aZ.BaHa2a3aV#paU````````````````````````````````````````````",
"``````````````````````````````````````````````````#tah#Kaha4a5ahahaha4#p#Kah#t``````````````````````````````````````````````````",
"````````````````````````````````````````````````````````````````````````````````````````````````````````````````````````````````"
};
