/* XPM */
static char *image_xpm[] = {
/* width height ncolors chars_per_pixel */
"32 32 116 2",
"   c #a5c9e3",
" . c #e4eff7",
" + c #7eb0d7",
" @ c #c1d9ec",
" # c #c6dcee",
" $ c #94bede",
" % c #82b3d8",
" & c #b6d2e9",
" * c #d8e7f3",
" = c #b2d1e8",
" - c #f7fafd",
" ; c #98c1df",
" > c #d2e4f1",
" , c #ffffff",
" ' c #eef5fb",
" ) c #83b4d9",
" ! c #f5f9fc",
" ~ c #e5f0f7",
" { c #ddeaf5",
" ] c #69a5d2",
" ^ c #dbeaf5",
" / c #90bcde",
" ( c #a6c9e4",
" _ c #76abd5",
" : c #a8cae5",
" < c #d4e5f2",
" [ c #d3e4f2",
" } c #bad5ea",
" | c #aacce6",
" 1 c #fbfcfe",
" 2 c #95bfdf",
" 3 c #f7fbfd",
" 4 c #bcd6ea",
" 5 c #f9fbfd",
" 6 c #cadfef",
" 7 c #c7ddee",
" 8 c #d5e6f2",
" 9 c #e2eef6",
" 0 c #d7e7f3",
" a c #d1e3f1",
" b c #9bc2e0",
" c c #ddebf5",
" d c #89b7db",
" e c #ebf3f9",
" f c #b6d3e9",
" g c #b7d3e9",
" h c #9fc4e2",
" i c #fefeff",
" j c #b0d0e8",
" k c #97c0e0",
" l c #deebf5",
" m c #edf4fa",
" n c #cfe2f1",
" o c #f6f9fc",
" p c #e2eef7",
" q c #c2d9ec",
" r c #d3e4f1",
" s c #92bdde",
" t c #64a1d0",
" u c #bed8eb",
" v c #7bafd6",
" w c #73abd5",
" x c #fcfdfe",
" y c #8dbadc",
" z c #e1edf6",
" A c #8ab8db",
" B c #cde1f0",
" C c #f3f8fc",
" D c #ecf4fa",
" E c #a3c7e3",
" F c #90bcdd",
" G c #d7e6f3",
" H c #87b6da",
" I c #fdfeff",
" J c #bed7eb",
" K c #81b3d8",
" L c #f6fafc",
" M c #eaf3f9",
" N c #6aa5d2",
" O c #f6fafd",
" P c #d9e8f3",
" Q c #9dc3e1",
" R c #fafcfe",
" S c #c2daec",
" T c #ebf4fa",
" U c #e9f2f9",
" V c #c7deef",
" W c #f1f7fb",
" X c #93bede",
" Y c #d3e5f2",
" Z c #96bfdf",
" ` c #cee1f0",
".  c #9ac2e0",
".. c #d5e5f2",
".+ c #d0e2f1",
".@ c #99c1e0",
".# c #fcfeff",
".$ c #c8deee",
".% c #8bb9db",
".& c #f4f8fc",
".* c #f8fbfd",
".= c #f2f7fb",
".- c #a5c8e4",
".; c #e3eef7",
".> c #f4f9fc",
"., c #f0f6fb",
".' c #fbfdfe",
".) c #e0ecf6",
".! c #94bedf",
".~ c #d8e8f3",
".{ c #bbd6eb",
".] c #eef5fa",
".^ c #b8d4e9",
"./ c #c3dbed",
".( c #bfd8eb",
"._ c #86b6da",
" , , , , , , , , , , , , , , , , , , , , , , , , , , , , , , , ,",
" , , , , , , , , , , , , m ^ Y > 8 c U ! , , , , , , , , , , , ,",
" , , , , , , , , , C.$ :.- | j f 4 @ 7 B G e.# , , , , , , , , ,",
" , , , , , , ,.' S 2.@ h.- | j f 4 @ 7 B r.~ l W , , , , , , , ,",
" , , , , , , m b y s.@ h.- | j f 4 @ 7 B r.~ {.; m I , , , , , ,",
" , , , , , ~.% H y s.@ h.- = V [ 0.. ` B r.~ {.; U., I , , , , ,",
" , , , , m._ K H y s. ./.] , , , , , , O . P {.; U ' ! , , , , ,",
" , , , i / v K H y E e , , , , , , , , , ,.* p.; U '.> 1 , , , ,",
" , , ,.{ _ v K H (.* , , , , , , , , , , , , I U U '.> R , , , ,",
" , , - w _ v K Z - , , , , , , , , , , , , , , I T '.> R , , , ,",
" , , } ] _ v % z , , , , , , , , , , , , , , , , R '.> R , , , ,",
" , , ) ] _ v   , , , , , , , , , , , , , , , , , ,.&.> R , , , ,",
" , C t ] _ v P , , , , , , , , , , , , , , , , , ,.'.> R , , , ,",
" , < t ] _ + R , , , , , , , , , , , , , , , , , , ,.> R , , , ,",
" , u t ] _ F , , , , , , , , , , , , , , , , , , , , L R , , , ,",
" , & t ] _.  , , , , , , , , , , , , , , , , , , , , - R , , , ,",
" ,.^ t ] _ ; , , , , , , , , , , , , , , , , , , , , L R , , , ,",
" , # t ] _ A , , , , , , , , , , , , , , , , , , , , ! R , , , ,",
" , l t ] _ v C , , , , , , , , , , , , , , , , , , I.> R , , , ,",
" , x N ] _ v 6 , , , , , , , , , , , , , , , , , , -.> R , , , ,",
" , , Z ] _ v $ i , , , , , , , , , , , , , , , , ,.,.> R , , , ,",
" , , n ] _ v K 7 , , , , , , , , , , , , , , , , C '.> R , , , ,",
" , , , k _ v K d z , , , , , , , , , , , , , , 3 U '.> R , , , ,",
" , , , R.! v K H s 9 , , , , , , , , , , , , o . U '.> R , , , ,",
" , , , ,.* Q K H y X 6 x , , , , , , , , I M c.; U '.> x , , , ,",
" , , , , , I g H y s.@ :.+ D I , , I.= . *.) l.; U ' 3 , , , , ,",
" , , , , , , , 9 ( s.@ h.- | j }.( q < m i , 5.; U C , , , , , ,",
" , , , , , , , , , e ` J g }./ a.;.* , , , , , m.> , , , , , , ,",
" , , , , , , , , , , , , , , , , , , , , , , , , , , , , , , , ,",
" , , , , , , , , , , , , , , , , , , , , , , , , , , , , , , , ,",
" , , , , , , , , , , , , , , , , , , , , , , , , , , , , , , , ,",
" , , , , , , , , , , , , , , , , , , , , , , , , , , , , , , , ,",
};