/* XPM */
static char *image_xpm[] = {
/* width height ncolors chars_per_pixel */
"64 64 193 2",
"   c #a7cae5",
" . c #a1c5e2",
" + c #b4d2e8",
" @ c #e4eff7",
" # c #bcd7eb",
" $ c #b9d4e9",
" % c #9cc3e1",
" & c #a9cbe5",
" * c #8db9dc",
" = c #bfd8ec",
" - c #bfd9ec",
" ; c #c1d9ec",
" > c #c2daed",
" , c #94bede",
" ' c #d0e3f1",
" ) c #afcee7",
" ! c #f9fcfe",
" ~ c #8cb9dc",
" { c #7fb2d8",
" ] c #82b3d8",
" ^ c #79aed7",
" / c #f5f9fd",
" ( c #d8e7f3",
" _ c #a0c5e2",
" : c #f7fafd",
" < c #7db0d8",
" [ c #d2e4f1",
" } c #6ba5d2",
" | c #b9d5ea",
" 1 c #ffffff",
" 2 c #e6f0f8",
" 3 c #b5d2e9",
" 4 c #eef5fb",
" 5 c #85b5da",
" 6 c #bcd6eb",
" 7 c #83b4d9",
" 8 c #f5f9fc",
" 9 c #ecf3f9",
" 0 c #ddeaf5",
" a c #69a5d2",
" b c #dceaf5",
" c c #dbeaf5",
" d c #7aaed7",
" e c #e4eef7",
" f c #9fc5e2",
" g c #accce6",
" h c #76abd5",
" i c #e8f1f8",
" j c #feffff",
" k c #d4e5f2",
" l c #d3e4f2",
" m c #d8e7f4",
" n c #66a3d1",
" o c #bdd7eb",
" p c #aacce6",
" q c #fbfcfe",
" r c #cbe0f0",
" s c #76acd6",
" t c #9ec5e2",
" u c #75abd5",
" v c #95bfdf",
" w c #f7fbfd",
" x c #bcd6ea",
" y c #88b6db",
" z c #f9fbfd",
" A c #ebf3fa",
" B c #7fb1d8",
" C c #cadfef",
" D c #71a9d4",
" E c #c7ddee",
" F c #cbdfef",
" G c #d5e6f2",
" H c #e2eef6",
" I c #eef4fa",
" J c #619fcf",
" K c #d7e7f3",
" L c #adcde6",
" M c #d1e3f1",
" N c #9cc2e1",
" O c #9bc2e0",
" P c #ddebf5",
" Q c #89b7db",
" R c #ebf3f9",
" S c #eaf2f9",
" T c #aecee7",
" U c #b8d4ea",
" V c #b6d3e9",
" W c #b7d3e9",
" X c #9fc4e2",
" Y c #fefeff",
" Z c #b0d0e8",
" ` c #80b2d8",
".  c #cce0f0",
".. c #eff6fa",
".+ c #f2f7fc",
".@ c #c4dcee",
".# c #63a0cf",
".$ c #deebf5",
".% c #6ca6d3",
".& c #edf4fa",
".* c #cfe2f1",
".= c #f6f9fc",
".- c #e2eef7",
".; c #84b4da",
".> c #d3e4f1",
"., c #92bdde",
".' c #64a1d0",
".) c #c6ddee",
".! c #bed8eb",
".~ c #7bafd6",
".{ c #88b7da",
".] c #8ebadc",
".^ c #fcfdfe",
"./ c #ddeaf4",
".( c #8dbadc",
"._ c #6ca5d2",
".: c #e1edf6",
".< c #8ab8db",
".[ c #78add6",
".} c #cde1f0",
".| c #b0cfe7",
".1 c #7eb1d7",
".2 c #73aad5",
".3 c #c4dbed",
".4 c #f3f8fc",
".5 c #ecf4fa",
".6 c #a2c6e3",
".7 c #a3c7e3",
".8 c #69a4d1",
".9 c #a9cbe4",
".0 c #79add6",
".a c #90bcdd",
".b c #dceaf4",
".c c #87b6da",
".d c #fdfeff",
".e c #81b3d8",
".f c #f6fafc",
".g c #dbe9f4",
".h c #eaf3f9",
".i c #6aa5d2",
".j c #e7f1f8",
".k c #f6fafd",
".l c #e6f0f7",
".m c #d9e8f3",
".n c #e7f0f8",
".o c #e3eef6",
".p c #fafcfe",
".q c #d1e4f1",
".r c #e9f2f9",
".s c #dfecf6",
".t c #84b4d9",
".u c #f1f7fb",
".v c #a4c8e4",
".w c #96bfdf",
".x c #96bfde",
".y c #a2c6e2",
".z c #cee1f0",
".A c #b4d1e8",
".B c #9ac2e0",
".C c #d5e5f2",
".D c #d0e2f1",
".E c #7bafd7",
".F c #eff6fb",
".G c #adcee7",
".H c #e2edf6",
".I c #99c1e0",
".J c #98c0df",
".K c #65a2d0",
".L c #90bbdd",
".M c #f4f8fc",
".N c #f8fbfd",
".O c #f2f7fb",
".P c #b5d2e8",
".Q c #73a9d4",
".R c #eff5fa",
".S c #a5c8e4",
".T c #dfecf5",
".U c #e3eef7",
".V c #f4f9fc",
".W c #7fb1d7",
".X c #f0f6fb",
".Y c #fbfdfe",
".Z c #accde6",
".` c #f3f8fb",
"+  c #e0ecf6",
"+. c #d8e8f3",
"++ c #bbd6eb",
"+@ c #eef5fa",
"+# c #a0c6e2",
"+$ c #b3d1e8",
"+% c #bfd8eb",
"+& c #83b4da",
"+* c #e9f2f8",
" 1 1 1 1 1 1 1 1 1 1 1 1 1 1 1 1 1 1 1 1 1 1 1 1 1 1 1 1 1 1 1 1 1 1 1 1 1 1 1 1 1 1 1 1 1 1 1 1 1 1 1 1 1 1 1 1 1 1 1 1 1 1 1 1",
" 1 1 1 1 1 1 1 1 1 1 1 1 1 1 1 1 1 1 1 1 1 1 1 1 1 1 1 1 1 1 1 1 1 1 1 1 1 1 1 1 1 1 1 1 1 1 1 1 1 1 1 1 1 1 1 1 1 1 1 1 1 1 1 1",
" 1 1 1 1 1 1 1 1 1 1 1 1 1 1 1 1 1 1 1 1 1 1 1 1 1 1 1 1.Y.4.& R.&.X.k.d 1 1 1 1 1 1 1 1 1 1 1 1 1 1 1 1 1 1 1 1 1 1 1 1 1 1 1 1",
" 1 1 1 1 1 1 1 1 1 1 1 1 1 1 1 1 1 1 1 1 1 1 1.Y.U.z 6 ) p.G Z+$ V $ x.! E k.H.u Y 1 1 1 1 1 1 1 1 1 1 1 1 1 1 1 1 1 1 1 1 1 1 1",
" 1 1 1 1 1 1 1 1 1 1 1 1 1 1 1 1 1 1 1 1 j.T | X X.6.S   p.G Z+$ V $ x.! ;.3 E C.*.s.` 1 1 1 1 1 1 1 1 1 1 1 1 1 1 1 1 1 1 1 1 1",
" 1 1 1 1 1 1 1 1 1 1 1 1 1 1 1 1 1 1.Y.} t.w.I N X.6.S   p.G Z+$ V $ x.! ;.3 E C.}.D.>.g.R j 1 1 1 1 1 1 1 1 1 1 1 1 1 1 1 1 1 1",
" 1 1 1 1 1 1 1 1 1 1 1 1 1 1 1 1 1 [.J.a.,.w.I N X.6.S   p.G Z+$ V $ x.! ;.3 E C.}.D.> G+..T.4 1 1 1 1 1 1 1 1 1 1 1 1 1 1 1 1 1",
" 1 1 1 1 1 1 1 1 1 1 1 1 1 1 1.&.y.<.(.a.,.w.I N X.6.S   p.G Z+$ V $ x.! ;.3 E C.}.D.> G+..g 0 i.Y 1 1 1 1 1 1 1 1 1 1 1 1 1 1 1",
" 1 1 1 1 1 1 1 1 1 1 1 1 1 1 ' Q.c.<.(.a.,.w.I N X.6.S   p.G Z+$ V $ x.! ;.3 E C.}.D.> G+..g 0+  @.k 1 1 1 1 1 1 1 1 1 1 1 1 1 1",
" 1 1 1 1 1 1 1 1 1 1 1 1 j.P.e.t.c.<.(.a.,.w.I N X.6.S   p.G Z+$ V $ x.! ;.3 E C.}.D.> G+..g 0+ .U 2.4 1 1 1 1 1 1 1 1 1 1 1 1 1",
" 1 1 1 1 1 1 1 1 1 1 1 q.7.1.e.t.c.<.(.a.,.w.I N X.6.S   p.G Z+$ V $ x.! ;.3 E C.}.D.> G+..g 0+ .U 2.r.+ 1 1 1 1 1 1 1 1 1 1 1 1",
" 1 1 1 1 1 1 1 1 1 1.Y %.~.1.e.t.c.<.(.a.,.w.I N X.6.Z.@ K @+@.u.4.R S.: ( F E C.}.D.> G+..g 0+ .U 2.r A.4 1 1 1 1 1 1 1 1 1 1 1",
" 1 1 1 1 1 1 1 1 1 1.7.0.~.1.e.t.c.<.(.a.,.w.I . E.h 1 1 1 1 1 1 1 1 1 1 1 1.k.- M.D.> G+..g 0+ .U 2.r A 4.f 1 1 1 1 1 1 1 1 1 1",
" 1 1 1 1 1 1 1 1 1 3 h.0.~.1.e.t.c.<.(.a., O.} z 1 1 1 1 1 1 1 1 1 1 1 1 1 1 1 1.d S.C G+..g 0+ .U 2.r A 4.u.p 1 1 1 1 1 1 1 1 1",
" 1 1 1 1 1 1 1 1 l.2 h.0.~.1.e.t.c.<.(.a.P.V 1 1 1 1 1 1 1 1 1 1 1 1 1 1 1 1 1 1 1 1.Y.o+..g 0+ .U 2.r A 4.u.V.d 1 1 1 1 1 1 1 1",
" 1 1 1 1 1 1 1.4.[.Q h.0.~.1.e.t.c.<.L.q 1 1 1 1 1 1 1 1 1 1 1 1 1 1 1 1 1 1 1 1 1 1 1 1+@.b 0+ .U 2.r A 4.u.V.N 1 1 1 1 1 1 1 1",
" 1 1 1 1 1 1 1+#.%.Q h.0.~.1.e.t.c.a.H 1 1 1 1 1 1 1 1 1 1 1 1 1 1 1 1 1 1 1 1 1 1 1 1 1 1 8.$+ .U 2.r A 4.u.V w.^ 1 1 1 1 1 1 1",
" 1 1 1 1 1 1 b.i.%.Q h.0.~.1.e.t ~ 2 1 1 1 1 1 1 1 1 1 1 1 1 1 1 1 1 1 1 1 1 1 1 1 1 1 1 1 1 :.:.U 2.r A 4.u.V w.p 1 1 1 1 1 1 1",
" 1 1 1 1 1 1.< a.%.Q h.0.~.1.e 5 P 1 1 1 1 1 1 1 1 1 1 1 1 1 1 1 1 1 1 1 1 1 1 1 1 1 1 1 1 1 1 8.U 2.r A 4.u.V w.p.d 1 1 1 1 1 1",
" 1 1 1 1 1 K n a.%.Q h.0.~.1.e ; 1 1 1 1 1 1 1 1 1 1 1 1 1 1 1 1 1 1 1 1 1 1 1 1 1 1 1 1 1 1 1 1.u 2.r A 4.u.V w.p.d 1 1 1 1 1 1",
" 1 1 1 1 1., n a.%.Q h.0.~.1.B j 1 1 1 1 1 1 1 1 1 1 1 1 1 1 1 1 1 1 1 1 1 1 1 1 1 1 1 1 1 1 1 1 1 R.r A 4.u.V w.p.d 1 1 1 1 1 1",
" 1 1 1 1...K n a.%.Q h.0.~.W.l 1 1 1 1 1 1 1 1 1 1 1 1 1 1 1 1 1 1 1 1 1 1 1 1 1 1 1 1 1 1 1 1 1 1.Y.r A 4.u.V w.p.d 1 1 1 1 1 1",
" 1 1 1 1 U.' n a.%.Q h.0.~ & 1 1 1 1 1 1 1 1 1 1 1 1 1 1 1 1 1 1 1 1 1 1 1 1 1 1 1 1 1 1 1 1 1 1 1 1.u A 4.u.V w.p.d 1 1 1 1 1 1",
" 1 1 1 1.c.' n a.%.Q h.0.~.j 1 1 1 1 1 1 1 1 1 1 1 1 1 1 1 1 1 1 1 1 1 1 1 1 1 1 1 1 1 1 1 1 1 1 1 1.^ A 4.u.V w.p.d 1 1 1 1 1 1",
" 1 1 1 :.#.' n a.%.Q h.0.x 1 1 1 1 1 1 1 1 1 1 1 1 1 1 1 1 1 1 1 1 1 1 1 1 1 1 1 1 1 1 1 1 1 1 1 1 1 1.X 4.u.V w.p.d 1 1 1 1 1 1",
" 1 1 1 k J.' n a.%.Q h.0.3 1 1 1 1 1 1 1 1 1 1 1 1 1 1 1 1 1 1 1 1 1 1 1 1 1 1 1 1 1 1 1 1 1 1 1 1 1 1.N 4.u.V w.p.d 1 1 1 1 1 1",
" 1 1 1.A J.' n a.%.Q h.0+* 1 1 1 1 1 1 1 1 1 1 1 1 1 1 1 1 1 1 1 1 1 1 1 1 1 1 1 1 1 1 1 1 1 1 1 1 1 1.d 4.u.V w.p.d 1 1 1 1 1 1",
" 1 1 1.I J.' n a.%.Q h+& 1 1 1 1 1 1 1 1 1 1 1 1 1 1 1 1 1 1 1 1 1 1 1 1 1 1 1 1 1 1 1 1 1 1 1 1 1 1 1 1.X.u.V w.p.d 1 1 1 1 1 1",
" 1 1 1.; J.' n a.%.Q h.I 1 1 1 1 1 1 1 1 1 1 1 1 1 1 1 1 1 1 1 1 1 1 1 1 1 1 1 1 1 1 1 1 1 1 1 1 1 1 1 1.4.u.V w.p.d 1 1 1 1 1 1",
" 1 1 1 u J.' n a.%.Q h g 1 1 1 1 1 1 1 1 1 1 1 1 1 1 1 1 1 1 1 1 1 1 1 1 1 1 1 1 1 1 1 1 1 1 1 1 1 1 1 1 /.u.V w.p.d 1 1 1 1 1 1",
" 1 1 1._ J.' n a.%.Q h 3 1 1 1 1 1 1 1 1 1 1 1 1 1 1 1 1 1 1 1 1 1 1 1 1 1 1 1 1 1 1 1 1 1 1 1 1 1 1 1 1 :.u.V w.p.d 1 1 1 1 1 1",
" 1 1 1.8 J.' n a.%.Q h++ 1 1 1 1 1 1 1 1 1 1 1 1 1 1 1 1 1 1 1 1 1 1 1 1 1 1 1 1 1 1 1 1 1 1 1 1 1 1 1 1 :.u.V w.p.d 1 1 1 1 1 1",
" 1 1 1 } J.' n a.%.Q h W 1 1 1 1 1 1 1 1 1 1 1 1 1 1 1 1 1 1 1 1 1 1 1 1 1 1 1 1 1 1 1 1 1 1 1 1 1 1 1 1.k.u.V w.p.d 1 1 1 1 1 1",
" 1 1 1 D J.' n a.%.Q h.| 1 1 1 1 1 1 1 1 1 1 1 1 1 1 1 1 1 1 1 1 1 1 1 1 1 1 1 1 1 1 1 1 1 1 1 1 1 1 1 1 8.u.V w.p.d 1 1 1 1 1 1",
" 1 1 1 B J.' n a.%.Q h _ 1 1 1 1 1 1 1 1 1 1 1 1 1 1 1 1 1 1 1 1 1 1 1 1 1 1 1 1 1 1 1 1 1 1 1 1 1 1 1 1.+.u.V w.p.d 1 1 1 1 1 1",
" 1 1 1 , J.' n a.%.Q h * 1 1 1 1 1 1 1 1 1 1 1 1 1 1 1 1 1 1 1 1 1 1 1 1 1 1 1 1 1 1 1 1 1 1 1 1 1 1 1 1.F.u.V w.p.d 1 1 1 1 1 1",
" 1 1 1 L J.' n a.%.Q h ^.f 1 1 1 1 1 1 1 1 1 1 1 1 1 1 1 1 1 1 1 1 1 1 1 1 1 1 1 1 1 1 1 1 1 1 1 1 1 1.^ 4.u.V w.p.d 1 1 1 1 1 1",
" 1 1 1 C J.' n a.%.Q h.0.C 1 1 1 1 1 1 1 1 1 1 1 1 1 1 1 1 1 1 1 1 1 1 1 1 1 1 1 1 1 1 1 1 1 1 1 1 1 1.k 4.u.V w.p.d 1 1 1 1 1 1",
" 1 1 1+@ J.' n a.%.Q h.0.9 1 1 1 1 1 1 1 1 1 1 1 1 1 1 1 1 1 1 1 1 1 1 1 1 1 1 1 1 1 1 1 1 1 1 1 1 1 1.F 4.u.V w.p.d 1 1 1 1 1 1",
" 1 1 1 1.[.' n a.%.Q h.0 `.k 1 1 1 1 1 1 1 1 1 1 1 1 1 1 1 1 1 1 1 1 1 1 1 1 1 1 1 1 1 1 1 1 1 1 1 1.^ A 4.u.V w.p.d 1 1 1 1 1 1",
" 1 1 1 1 &.' n a.%.Q h.0.~ ; 1 1 1 1 1 1 1 1 1 1 1 1 1 1 1 1 1 1 1 1 1 1 1 1 1 1 1 1 1 1 1 1 1 1 1 1.u A 4.u.V w.p.d 1 1 1 1 1 1",
" 1 1 1 1.T.' n a.%.Q h.0.~.{.k 1 1 1 1 1 1 1 1 1 1 1 1 1 1 1 1 1 1 1 1 1 1 1 1 1 1 1 1 1 1 1 1 1 1.^.r A 4.u.V w.p.d 1 1 1 1 1 1",
" 1 1 1 1 1 { n a.%.Q h.0.~.1 + 1 1 1 1 1 1 1 1 1 1 1 1 1 1 1 1 1 1 1 1 1 1 1 1 1 1 1 1 1 1 1 1 1 1.&.r A 4.u.V w.p.d 1 1 1 1 1 1",
" 1 1 1 1 1 - n a.%.Q h.0.~.1 ].g 1 1 1 1 1 1 1 1 1 1 1 1 1 1 1 1 1 1 1 1 1 1 1 1 1 1 1 1 1 1 1 1 8 2.r A 4.u.V w.p.d 1 1 1 1 1 1",
" 1 1 1 1 1.Y 5 a.%.Q h.0.~.1.e.].X 1 1 1 1 1 1 1 1 1 1 1 1 1 1 1 1 1 1 1 1 1 1 1 1 1 1 1 1 1 1.p @ 2.r A 4.u.V w.p.d 1 1 1 1 1 1",
" 1 1 1 1 1 1.u.E.%.Q h.0.~.1.e.t.I.k 1 1 1 1 1 1 1 1 1 1 1 1 1 1 1 1 1 1 1 1 1 1 1 1 1 1 1 1.^ @.U 2.r A 4.u.V w.p j 1 1 1 1 1 1",
" 1 1 1 1 1 1 1.j s.Q h.0.~.1.e.t.c f 8 1 1 1 1 1 1 1 1 1 1 1 1 1 1 1 1 1 1 1 1 1 1 1 1 1 1.^.U+ .U 2.r A 4.u.V w q 1 1 1 1 1 1 1",
" 1 1 1 1 1 1 1 1.s d h.0.~.1.e.t.c.< %.& 1 1 1 1 1 1 1 1 1 1 1 1 1 1 1 1 1 1 1 1 1 1 1 1.N.T 0+ .U 2.r A 4.u.V w j 1 1 1 1 1 1 1",
" 1 1 1 1 1 1 1 1 1+  <.0.~.1.e.t.c.<.( v+. 1 1 1 1 1 1 1 1 1 1 1 1 1 1 1 1 1 1 1 1 1 1+@.m.g 0+ .U 2.r A 4.u.V.Y 1 1 1 1 1 1 1 1",
" 1 1 1 1 1 1 1 1 1 1 2 y.~.1.e.t.c.<.(.a.,.A.X 1 1 1 1 1 1 1 1 1 1 1 1 1 1 1 1 1 1.k./ G+..g 0+ .U 2.r A 4.u w 1 1 1 1 1 1 1 1 1",
" 1 1 1 1 1 1 1 1 1 1 1.4.I.1.e.t.c.<.(.a.,.w.B = S 1 1 1 1 1 1 1 1 1 1 1 1 1 1.u c.D.> G+..g 0+ .U 2.r A 4.` 1 1 1 1 1 1 1 1 1 1",
" 1 1 1 1 1 1 1 1 1 1 1 1 j.! 7.t.c.<.(.a.,.w.I N X T r.U.O j 1 1 1 1 j.f.r.g.  C.} m e.n P.g 0+ .U 2.r A.X Y 1 1 1 1 1 1 1 1 1 1",
" 1 1 1 1 1 1 1 1 1 1 1 1 1 1.n ..c.<.(.a.,.w.I N X.6.S   p T V o+%+% #.! ;.3. .U.N 1 1 1 j.l 0+ .U 2.r I.d 1 1 1 1 1 1 1 1 1 1 1",
" 1 1 1 1 1 1 1 1 1 1 1 1 1 1 1 1.g.7.(.a.,.w.I N X.6.S   p.G Z+$ V $ x - l 9 1 1 1 1 1 1 1.d.s+ .U 2.5.d 1 1 1 1 1 1 1 1 1 1 1 1",
" 1 1 1 1 1 1 1 1 1 1 1 1 1 1 1 1 1 1.h >.v.w.I N X.6.S   p.G Z+$ |.} @ ! 1 1 1 1 1 1 1 1 1 1+@+ .U+@ j 1 1 1 1 1 1 1 1 1 1 1 1 1",
" 1 1 1 1 1 1 1 1 1 1 1 1 1 1 1 1 1 1 1 1 1.= H l F.3.3.).  K.U.u 1 1 1 1 1 1 1 1 1 1 1 1 1 1.Y.:.M 1 1 1 1 1 1 1 1 1 1 1 1 1 1 1",
" 1 1 1 1 1 1 1 1 1 1 1 1 1 1 1 1 1 1 1 1 1 1 1 1 1 1 1 1 1 1 1 1 1 1 1 1 1 1 1 1 1 1 1 1 1 1 1.d 1 1 1 1 1 1 1 1 1 1 1 1 1 1 1 1",
" 1 1 1 1 1 1 1 1 1 1 1 1 1 1 1 1 1 1 1 1 1 1 1 1 1 1 1 1 1 1 1 1 1 1 1 1 1 1 1 1 1 1 1 1 1 1 1 1 1 1 1 1 1 1 1 1 1 1 1 1 1 1 1 1",
" 1 1 1 1 1 1 1 1 1 1 1 1 1 1 1 1 1 1 1 1 1 1 1 1 1 1 1 1 1 1 1 1 1 1 1 1 1 1 1 1 1 1 1 1 1 1 1 1 1 1 1 1 1 1 1 1 1 1 1 1 1 1 1 1",
" 1 1 1 1 1 1 1 1 1 1 1 1 1 1 1 1 1 1 1 1 1 1 1 1 1 1 1 1 1 1 1 1 1 1 1 1 1 1 1 1 1 1 1 1 1 1 1 1 1 1 1 1 1 1 1 1 1 1 1 1 1 1 1 1",
" 1 1 1 1 1 1 1 1 1 1 1 1 1 1 1 1 1 1 1 1 1 1 1 1 1 1 1 1 1 1 1 1 1 1 1 1 1 1 1 1 1 1 1 1 1 1 1 1 1 1 1 1 1 1 1 1 1 1 1 1 1 1 1 1",
" 1 1 1 1 1 1 1 1 1 1 1 1 1 1 1 1 1 1 1 1 1 1 1 1 1 1 1 1 1 1 1 1 1 1 1 1 1 1 1 1 1 1 1 1 1 1 1 1 1 1 1 1 1 1 1 1 1 1 1 1 1 1 1 1",
" 1 1 1 1 1 1 1 1 1 1 1 1 1 1 1 1 1 1 1 1 1 1 1 1 1 1 1 1 1 1 1 1 1 1 1 1 1 1 1 1 1 1 1 1 1 1 1 1 1 1 1 1 1 1 1 1 1 1 1 1 1 1 1 1",
" 1 1 1 1 1 1 1 1 1 1 1 1 1 1 1 1 1 1 1 1 1 1 1 1 1 1 1 1 1 1 1 1 1 1 1 1 1 1 1 1 1 1 1 1 1 1 1 1 1 1 1 1 1 1 1 1 1 1 1 1 1 1 1 1",
};