/* XPM */
static char *image_xpm[] = {
/* width height ncolors chars_per_pixel */
"16 16 61 1",
"  c #a5c9e3",
". c #9cc3e1",
"+ c #d6e6f3",
"@ c #c6dcee",
"# c #d0e3f1",
"$ c #82b3d8",
"% c #b2d1e8",
"& c #f7fafd",
"* c #6ba5d2",
"= c #bbd6ea",
"- c #ffffff",
"; c #ddeaf5",
"> c #69a5d2",
", c #dceaf5",
"' c #b1d0e8",
") c #c5dcee",
"! c #feffff",
"~ c #f7fbfd",
"{ c #c9dfef",
"] c #bcd6ea",
"^ c #f9fbfd",
"/ c #c7ddee",
"( c #d7e7f3",
"_ c #ebf3f9",
": c #b8d4ea",
"< c #b0d0e8",
"[ c #cfe2f1",
"} c #d3e4f1",
"| c #ecf4f9",
"1 c #8dbadc",
"2 c #8ab8db",
"3 c #8cbadc",
"4 c #f3f8fc",
"5 c #e5f0f8",
"6 c #90bcdd",
"7 c #fdfeff",
"8 c #81b3d8",
"9 c #f6fafc",
"0 c #f6fafd",
"a c #e7f0f8",
"b c #fafcfe",
"c c #e9f2f9",
"d c #89b8db",
"e c #f9fcfd",
"f c #9ac2e0",
"g c #eff6fb",
"h c #e2edf6",
"i c #99c1e0",
"j c #90bbdd",
"k c #f8fbfd",
"l c #f2f7fb",
"m c #a5c8e4",
"n c #f4f9fc",
"o c #f0f6fb",
"p c #fbfdfe",
"q c #accde6",
"r c #f9fdff",
"s c #f9ffff",
"t c #e0ecf6",
"u c #86b6da",
"v c #b8d5ea",
"------4|g^------",
"----+'<]/}h&----",
"--bqim%/#};c~---",
"-- 1.+p--7ocn---",
"-{8ja------bn---",
"-u8)--------b---",
"l>$n--------!---",
";>3-------------",
"t>2-------------",
"0*8g--------7---",
"-68=--------k---",
"-5d1(------0n---",
"--sfi@o!!9_cn---",
"----[:v/,--re---",
"----------------",
"----------------",
};